<?xml version="1.0" encoding="UTF-8" standalone="no"?>
<!DOCTYPE svg PUBLIC "-//W3C//DTD SVG 1.1//EN" "http://www.w3.org/Graphics/SVG/1.1/DTD/svg11.dtd">
<svg width="100%" height="100%" viewBox="0 0 1485 447" version="1.1" xmlns="http://www.w3.org/2000/svg" xmlns:xlink="http://www.w3.org/1999/xlink" xml:space="preserve" xmlns:serif="http://www.serif.com/" style="fill-rule:evenodd;clip-rule:evenodd;stroke-linejoin:round;stroke-miterlimit:2;">
    <g transform="matrix(1,0,0,1,-153.695,-18.1803)">
        <g transform="matrix(0.79151,0,0,0.79151,-123.357,-163.903)">
            <text x="911.124px" y="389.296px" style="font-family:'Verdana', sans-serif;font-size:200px;">Cloud Nativ<tspan x="2068.55px " y="389.296px ">e</tspan></text>
            <g transform="matrix(200,0,0,200,1977.43,589.296)">
            </g>
            <text x="911.124px" y="589.296px" style="font-family:'Verdana', sans-serif;font-size:200px;">CI/CD Con</text>
        </g>
        <g id="Layer5" transform="matrix(1,0,0,1,0.922512,0)">
            <g transform="matrix(0.788238,0,0,1,134.434,0)">
                <rect x="607.55" y="348.954" width="1274.24" height="110.451" style="fill:rgb(50,108,229);"/>
            </g>
            <g transform="matrix(1.35956,0,0,1.33909,-376.611,-121.759)">
                <g transform="matrix(60.9029,0,0,60.9029,1203.15,408.772)">
                </g>
                <text x="988.917px" y="408.772px" style="font-family:'Verdana', sans-serif;font-size:60.903px;fill:white;">Europe</text>
            </g>
        </g>
        <g transform="matrix(0.407843,0,0,0.407843,164.305,261.008)">
            <g transform="matrix(1.21029,0,0,1.22656,-126.596,-716.219)">
                <path d="M517.5,480.297C517.5,480.297 521.177,439.018 516.533,380.13C512.25,325.812 505.621,267.738 474.127,237.039C449.669,213.198 435.701,185.956 350.127,179.927C314.716,177.432 261.987,201.808 242.974,220.063C221.455,240.724 204.793,262.633 195.614,304.366C177.224,387.979 246.339,452.153 274.772,465.055C332.483,491.243 473.283,509.973 517.989,509.561C562.76,509.149 540.664,509.259 583.828,510.024C622.946,510.718 731.111,514.981 767.341,518.192C816.894,522.584 863.715,543.018 905.967,582.6C960.81,633.977 979.144,686.131 978.982,747.78C978.839,802.002 961.162,836.286 923.657,887.734C896.322,925.229 829.063,958.814 758.5,961.077C653.376,964.449 583.077,902.254 551.696,844.531C520.088,786.389 515.196,715.192 515.221,691.156C515.285,629.521 516.98,611.622 516.98,611.622L580.26,613.012C580.26,613.012 577.677,631.094 578.938,696.498C580.012,752.269 585.501,774.852 608.57,823.082C636.8,882.102 707.268,904.29 761.414,900.246C808.791,896.708 854.654,868.118 875.84,843.576C892.273,824.54 911.143,792.121 914.639,754.298C917.487,723.493 903.5,668.937 878.093,638.09C851.123,605.346 819.731,591.644 768.29,582.836C738.601,577.752 643.31,577.422 583.963,576.064C552.067,575.334 563.971,576.758 517.22,573.906C494.971,572.548 439.232,570.346 385.158,563.486C345.352,558.436 306.943,549.485 280.934,543.519C175.14,519.249 103.878,377.779 128.627,295.096C139.819,257.708 140.044,224.687 210.489,165.948C247.786,134.848 308.375,117.772 355.48,117.479C410.233,117.139 466.753,134.981 517.038,185.313C575.387,243.716 584.201,333.524 582.488,383.736C581.22,420.902 581.859,484.245 581.471,482.707L517.5,480.297Z" style="fill:rgb(0,134,255);"/>
            </g>
            <g transform="matrix(1.21029,0,0,1.22656,-207.019,-841.032)">
                <path d="M442.335,297.079L446.555,317.624C454.722,318.874 462.727,321.019 470.425,324.02L484.352,308.337C492.146,311.881 499.577,316.172 506.543,321.149L499.925,341.052C506.373,346.218 512.233,352.078 517.399,358.526L537.302,351.908C542.279,358.873 546.57,366.305 550.113,374.098L534.431,388.026C537.432,395.724 539.577,403.728 540.827,411.896L561.372,416.116C562.2,424.637 562.2,433.218 561.372,441.739L540.827,445.959C539.577,454.127 537.432,462.131 534.431,469.829L550.113,483.757C546.57,491.55 542.279,498.982 537.302,505.947L517.399,499.329C512.233,505.777 506.373,511.637 499.925,516.803L506.543,536.706C499.577,541.683 492.146,545.974 484.352,549.518L470.425,533.835C462.727,536.836 454.722,538.981 446.555,540.231L442.335,560.776C433.814,561.604 425.233,561.604 416.712,560.776L412.491,540.231C404.324,538.981 396.319,536.836 388.621,533.835L374.694,549.518C366.901,545.974 359.469,541.683 352.504,536.706L359.121,516.803C352.673,511.637 346.813,505.777 341.647,499.329L321.745,505.947C316.767,498.982 312.477,491.55 308.933,483.757L324.616,469.829C321.614,462.131 319.469,454.127 318.22,445.959L297.675,441.739C296.847,433.218 296.847,424.637 297.675,416.116L318.22,411.896C319.469,403.728 321.614,395.724 324.616,388.026L308.933,374.098C312.477,366.305 316.767,358.873 321.745,351.908L341.647,358.526C346.813,352.078 352.673,346.218 359.121,341.052L352.504,321.149C359.469,316.172 366.901,311.881 374.694,308.337L388.621,324.02C396.319,321.019 404.324,318.874 412.491,317.624L416.712,297.079C425.233,296.251 433.814,296.251 442.335,297.079ZM429.523,402.434C444.146,402.434 456.017,414.305 456.017,428.928C456.017,443.55 444.146,455.421 429.523,455.421C414.901,455.421 403.029,443.55 403.029,428.928C403.029,414.305 414.901,402.434 429.523,402.434Z" style="fill:rgb(255,119,0);"/>
            </g>
            <g transform="matrix(1.21029,0,0,1.22656,266.84,-339.051)">
                <path d="M442.335,297.079L446.555,317.624C454.722,318.874 462.727,321.019 470.425,324.02L484.352,308.337C492.146,311.881 499.577,316.172 506.543,321.149L499.925,341.052C506.373,346.218 512.233,352.078 517.399,358.526L537.302,351.908C542.279,358.873 546.57,366.305 550.113,374.098L534.431,388.026C537.432,395.724 539.577,403.728 540.827,411.896L561.372,416.116C562.2,424.637 562.2,433.218 561.372,441.739L540.827,445.959C539.577,454.127 537.432,462.131 534.431,469.829L550.113,483.757C546.57,491.55 542.279,498.982 537.302,505.947L517.399,499.329C512.233,505.777 506.373,511.637 499.925,516.803L506.543,536.706C499.577,541.683 492.146,545.974 484.352,549.518L470.425,533.835C462.727,536.836 454.722,538.981 446.555,540.231L442.335,560.776C433.814,561.604 425.233,561.604 416.712,560.776L412.491,540.231C404.324,538.981 396.319,536.836 388.621,533.835L374.694,549.518C366.901,545.974 359.469,541.683 352.504,536.706L359.121,516.803C352.673,511.637 346.813,505.777 341.647,499.329L321.745,505.947C316.767,498.982 312.477,491.55 308.933,483.757L324.616,469.829C321.614,462.131 319.469,454.127 318.22,445.959L297.675,441.739C296.847,433.218 296.847,424.637 297.675,416.116L318.22,411.896C319.469,403.728 321.614,395.724 324.616,388.026L308.933,374.098C312.477,366.305 316.767,358.873 321.745,351.908L341.647,358.526C346.813,352.078 352.673,346.218 359.121,341.052L352.504,321.149C359.469,316.172 366.901,311.881 374.694,308.337L388.621,324.02C396.319,321.019 404.324,318.874 412.491,317.624L416.712,297.079C425.233,296.251 433.814,296.251 442.335,297.079ZM429.523,402.434C444.146,402.434 456.017,414.305 456.017,428.928C456.017,443.55 444.146,455.421 429.523,455.421C414.901,455.421 403.029,443.55 403.029,428.928C403.029,414.305 414.901,402.434 429.523,402.434Z" style="fill:rgb(255,119,0);"/>
            </g>
        </g>
    </g>
</svg>
